<svg xmlns="http://www.w3.org/2000/svg" viewBox="0 0 200 200"><defs><style>.cls-1,.cls-3{fill:#fff;}.cls-2{fill:#fde1d0;}.cls-2,.cls-3{stroke:#f56815;stroke-miterlimit:10;}.cls-4{fill:#f56815;}.cls-5{fill:none;}</style></defs><g id="图层_2" data-name="图层 2"><g id="图层_1-2" data-name="图层 1"><polygon class="cls-1" points="65.05 92.09 51.09 112.76 148.91 112.76 134.95 92.09 65.05 92.09"/><rect class="cls-2" x="46.99" y="115.01" width="106.02" height="46.42"/><path class="cls-2" d="M153,117.26H47A2.08,2.08,0,0,1,45.13,116a2.41,2.41,0,0,1,.18-2.34l17-25.18A2,2,0,0,1,64,87.59h72a2,2,0,0,1,1.68.92l17,25.18a2.41,2.41,0,0,1,.18,2.34A2.08,2.08,0,0,1,153,117.26Zm-101.92-4.5h97.82L135,92.09H65.05Z"/><path class="cls-2" d="M125.19,104.68H74.81a2.26,2.26,0,0,1,0-4.5h50.38a2.26,2.26,0,0,1,0,4.5Z"/><rect class="cls-3" x="77.53" y="52.88" width="49.46" height="37.49" transform="translate(-21.35 89.16) rotate(-43.08)"/><path class="cls-2" d="M97,104.68h-.08a2.47,2.47,0,0,1-1.73-.78L69.59,76.51a2.48,2.48,0,0,1-.67-1.77A2.52,2.52,0,0,1,69.71,73l36.13-33.78a2.34,2.34,0,0,1,1.77-.66,2.46,2.46,0,0,1,1.72.78l25.6,27.38a2.47,2.47,0,0,1-.11,3.5L98.69,104A2.47,2.47,0,0,1,97,104.68ZM74.89,74.94,97.12,98.71,129.63,68.3,107.41,44.53Z"/><polygon class="cls-4" points="105.96 127.52 105.5 136.24 112.41 141.56 103.98 143.81 101.06 152.03 96.31 144.71 87.59 144.47 93.08 137.69 90.62 129.32 98.76 132.46 105.96 127.52"/><rect class="cls-5" width="200" height="200"/></g></g></svg>