<svg xmlns="http://www.w3.org/2000/svg" viewBox="0 0 200 200"><defs><style>.cls-1{fill:none;}.cls-2{fill:#fde1d0;}.cls-3{fill:#f56815;}</style></defs><g id="图层_2" data-name="图层 2"><g id="图层_1-2" data-name="图层 1"><rect class="cls-1" width="200" height="200"/><path class="cls-2" d="M128.15,117.93a49.5,49.5,0,0,0,11.48-1.35S149.67,127,162.1,127c0,0-9.48-5-11-14.82,11.26-6.2,18.7-16.85,18.7-28.94,0-19.15-18.63-34.67-41.61-34.67s-41.6,15.52-41.6,34.67S105.17,117.93,128.15,117.93Z"/><path class="cls-3" d="M162.1,127.76c-11.55,0-20.9-8.59-22.7-10.36a50.6,50.6,0,0,1-11.25,1.27c-23.35,0-42.34-15.88-42.34-35.41s19-35.41,42.34-35.41S170.5,63.74,170.5,83.26c0,11.79-6.95,22.72-18.62,29.33,1.72,9,10.48,13.72,10.57,13.77l2.67,1.4Zm-22.23-12,.29.3c.09.1,8.48,8.67,19.15,10-3-2.22-7.88-6.78-9-13.78l-.08-.52.45-.25C162.17,105.23,169,94.66,169,83.26c0-18.71-18.34-33.93-40.87-33.93S87.29,64.55,87.29,83.26s18.33,33.93,40.86,33.93a48.85,48.85,0,0,0,11.31-1.33Z"/><circle class="cls-3" cx="113.45" cy="85.17" r="3.41"/><circle class="cls-3" cx="128.15" cy="85.17" r="3.41"/><circle class="cls-3" cx="142.85" cy="85.17" r="3.41"/><path class="cls-2" d="M71.85,143.32A49.5,49.5,0,0,1,60.37,142s-10,10.43-22.47,10.43c0,0,9.48-4.94,11-14.82-11.26-6.2-18.7-16.84-18.7-28.94C30.24,89.51,48.87,74,71.85,74s41.6,15.53,41.6,34.67S94.83,143.32,71.85,143.32Z"/><path class="cls-3" d="M37.9,153.15h-3l2.67-1.4c.09,0,8.85-4.72,10.57-13.77-11.67-6.61-18.62-17.54-18.62-29.33,0-19.52,19-35.41,42.35-35.41s42.34,15.89,42.34,35.41-19,35.41-42.34,35.41a50,50,0,0,1-11.25-1.27C58.8,144.56,49.45,153.15,37.9,153.15ZM71.85,74.72C49.32,74.72,31,90,31,108.65c0,11.4,6.85,22,18.32,28.29l.45.26-.08.51c-1.1,7-6,11.56-9,13.78,10.67-1.36,19.06-9.93,19.15-10l.29-.3.41.1a48.84,48.84,0,0,0,11.31,1.32c22.53,0,40.86-15.22,40.86-33.93S94.38,74.72,71.85,74.72Z"/><path class="cls-3" d="M93,101.87H50.71a1.92,1.92,0,0,1,0-3.83H93a1.92,1.92,0,1,1,0,3.83Z"/><path class="cls-3" d="M93,111.19H50.71a1.92,1.92,0,0,1,0-3.83H93a1.92,1.92,0,1,1,0,3.83Z"/><path class="cls-3" d="M93,121.31H50.71a1.92,1.92,0,0,1,0-3.83H93a1.92,1.92,0,1,1,0,3.83Z"/></g></g></svg>