<svg xmlns="http://www.w3.org/2000/svg" viewBox="0 0 200 200"><defs><style>.cls-1{fill:#fde1d0;}.cls-2{fill:#f56815;}.cls-3{fill:none;}</style></defs><g id="图层_2" data-name="图层 2"><g id="图层_1-2" data-name="图层 1"><line class="cls-1" x1="44.96" y1="47.21" x2="67.58" y2="93.22"/><rect class="cls-2" x="55.55" y="44.57" width="1.45" height="51.28" transform="translate(-25.21 32.03) rotate(-26.18)"/><line class="cls-1" x1="97.78" y1="47.21" x2="139.13" y2="63.21"/><rect class="cls-2" x="117.73" y="33.04" width="1.45" height="44.34" transform="translate(24.2 145.74) rotate(-68.84)"/><line class="cls-1" x1="155.04" y1="112.19" x2="110.82" y2="141.93"/><rect class="cls-2" x="106.28" y="126.33" width="53.3" height="1.45" transform="translate(-48.29 95.86) rotate(-33.94)"/><line class="cls-1" x1="64.13" y1="152.79" x2="110.82" y2="141.93"/><rect class="cls-2" x="63.5" y="146.64" width="47.93" height="1.45" transform="translate(-31.12 23.66) rotate(-13.1)"/><line class="cls-1" x1="44.96" y1="133.43" x2="67.58" y2="93.22"/><rect class="cls-2" x="33.2" y="112.6" width="46.13" height="1.45" transform="translate(-70.09 106.78) rotate(-60.63)"/><line class="cls-1" x1="139.13" y1="63.21" x2="67.58" y2="93.22"/><rect class="cls-2" x="64.56" y="77.49" width="77.58" height="1.45" transform="translate(-22.21 46.07) rotate(-22.76)"/><line class="cls-1" x1="110.82" y1="141.93" x2="139.13" y2="63.21"/><rect class="cls-2" x="83.15" y="101.84" width="83.65" height="1.45" transform="translate(-13.86 185.42) rotate(-70.2)"/><line class="cls-1" x1="67.58" y1="93.22" x2="110.82" y2="141.93"/><rect class="cls-2" x="88.47" y="85.01" width="1.45" height="65.12" transform="translate(-55.56 88.86) rotate(-41.59)"/><circle class="cls-1" cx="139.13" cy="63.21" r="19.44"/><path class="cls-2" d="M139.13,83.38a20.17,20.17,0,1,1,20.16-20.17A20.19,20.19,0,0,1,139.13,83.38Zm0-38.88a18.72,18.72,0,1,0,18.71,18.71A18.73,18.73,0,0,0,139.13,44.5Z"/><circle class="cls-1" cx="67.58" cy="93.22" r="18.91"/><path class="cls-2" d="M67.58,112.85A19.63,19.63,0,1,1,87.22,93.22,19.65,19.65,0,0,1,67.58,112.85Zm0-37.81A18.18,18.18,0,1,0,85.77,93.22,18.21,18.21,0,0,0,67.58,75Z"/><circle class="cls-1" cx="110.82" cy="141.93" r="19.46"/><path class="cls-2" d="M110.81,162.11A20.19,20.19,0,1,1,131,141.93,20.21,20.21,0,0,1,110.81,162.11Zm0-38.92a18.74,18.74,0,1,0,18.74,18.74A18.76,18.76,0,0,0,110.81,123.19Z"/><circle class="cls-2" cx="139.13" cy="63.21" r="11.2"/><circle class="cls-2" cx="67.58" cy="93.22" r="10.89"/><circle class="cls-2" cx="110.82" cy="141.93" r="11.21"/><circle class="cls-1" cx="44.96" cy="47.21" r="10.2"/><path class="cls-2" d="M45,58.13A10.93,10.93,0,1,1,55.88,47.21,10.94,10.94,0,0,1,45,58.13Zm0-20.4a9.48,9.48,0,1,0,9.47,9.48A9.49,9.49,0,0,0,45,37.73Z"/><circle class="cls-1" cx="97.78" cy="47.21" r="10.2"/><path class="cls-2" d="M97.78,58.13A10.93,10.93,0,1,1,108.7,47.21,10.94,10.94,0,0,1,97.78,58.13Zm0-20.4a9.48,9.48,0,1,0,9.47,9.48A9.49,9.49,0,0,0,97.78,37.73Z"/><circle class="cls-1" cx="155.04" cy="112.19" r="10.2"/><path class="cls-2" d="M155,123.11A10.93,10.93,0,1,1,166,112.19,10.93,10.93,0,0,1,155,123.11Zm0-20.4a9.48,9.48,0,1,0,9.48,9.48A9.49,9.49,0,0,0,155,102.71Z"/><circle class="cls-1" cx="64.13" cy="152.79" r="10.2"/><path class="cls-2" d="M64.13,163.72a10.93,10.93,0,1,1,10.92-10.93A10.94,10.94,0,0,1,64.13,163.72Zm0-20.4a9.48,9.48,0,1,0,9.47,9.47A9.48,9.48,0,0,0,64.13,143.32Z"/><circle class="cls-1" cx="44.96" cy="133.43" r="10.2"/><path class="cls-2" d="M45,144.35a10.93,10.93,0,1,1,10.92-10.92A10.94,10.94,0,0,1,45,144.35ZM45,124a9.48,9.48,0,1,0,9.47,9.48A9.49,9.49,0,0,0,45,124Z"/><rect class="cls-3" width="200" height="200"/></g></g></svg>