<svg xmlns="http://www.w3.org/2000/svg" viewBox="0 0 200 200"><defs><style>.cls-1{fill:#fde1d0;stroke:#f56815;stroke-miterlimit:10;fill-rule:evenodd;}.cls-2{fill:#f56815;}.cls-3{fill:none;}</style></defs><g id="图层_2" data-name="图层 2"><g id="图层_1-2" data-name="图层 1"><path class="cls-1" d="M72.58,114.64l25.09-21a1.47,1.47,0,0,0,.51-1.39L92.49,60a1.49,1.49,0,0,0-.95-1.14L60.76,47.62a1.49,1.49,0,0,0-1.46.25l-25,21a1.52,1.52,0,0,0-.5,1.4l5.68,32.24a1.49,1.49,0,0,0,1,1.14l30.73,11.2A1.46,1.46,0,0,0,72.58,114.64Z"/><path class="cls-2" d="M51.38,68.56l6.49-1.15L73.28,85.16l.33-.06-1.33-5.64-2.5-14.15,5.54-1L80.55,94l-5.88,1L58.4,76.23l-.33.06,1.34,5.65L62.1,97.2l-5.5,1Z"/><path class="cls-1" d="M138.2,103.07,107.46,91.86a1.46,1.46,0,0,1-.95-1.13l-5.69-32.25a1.47,1.47,0,0,1,.51-1.39l25-21a1.48,1.48,0,0,1,1.46-.26L158.61,47a1.48,1.48,0,0,1,1,1.13l5.68,32.25a1.49,1.49,0,0,1-.5,1.39l-25.09,21A1.49,1.49,0,0,1,138.2,103.07Z"/><path class="cls-2" d="M121,56.27,139.82,53l.93,5.3-13.19,2.32,1.26,7.2,11.87-2.09.94,5.29-11.87,2.09,2.08,11.83-5.58,1Z"/><path class="cls-1" d="M116.39,167l25.09-21a1.51,1.51,0,0,0,.5-1.4l-5.68-32.24a1.49,1.49,0,0,0-1-1.14l-30.77-11.2a1.48,1.48,0,0,0-1.46.26l-25,21a1.47,1.47,0,0,0-.51,1.39l5.69,32.25a1.48,1.48,0,0,0,1,1.14l30.74,11.2A1.49,1.49,0,0,0,116.39,167Z"/><path class="cls-2" d="M105.57,126.07l-8.27,1.46-.94-5.29,22.13-3.9.93,5.29-8.27,1.46,4.29,24.32-5.58,1Z"/><rect class="cls-3" width="200" height="200"/></g></g></svg>